<svg width="512" height="512" viewBox="0 0 512 512" fill="none" xmlns="http://www.w3.org/2000/svg">
<g clip-path="url(#clip0_215_41)">
<path d="M256 456C366.457 456 456 366.457 456 256C456 145.543 366.457 56 256 56C145.543 56 56 145.543 56 256C56 366.457 145.543 456 256 456Z" fill="#0077C8"/>
<path d="M343.891 301.586C334.594 297.445 323.695 301.664 319.555 310.922C319.398 311.273 319.281 311.625 319.164 312.016H179.398L257.172 177.25L315.297 277.328L326.352 270.922L257.133 151.703L157.172 324.828H319.164C320.844 329.32 324.203 333.148 328.93 335.258C331.352 336.352 333.891 336.859 336.391 336.859C343.461 336.859 350.18 332.797 353.227 325.922C357.367 316.664 353.187 305.727 343.891 301.586ZM344.438 322.016C342.445 326.469 337.211 328.461 332.836 326.508C328.383 324.516 326.391 319.281 328.344 314.906C329.828 311.625 333.031 309.672 336.391 309.672C337.602 309.672 338.813 309.906 339.945 310.414C344.438 312.367 346.43 317.602 344.438 322.016Z" fill="white"/>
<path d="M254.242 299.633H244.828V293.93C242.289 298.539 237.055 300.844 231.508 300.844C218.812 300.844 211.391 290.961 211.391 279.789C211.391 267.328 220.414 258.812 231.508 258.812C238.734 258.812 243.109 262.641 244.828 265.805V260.023H254.242V299.633ZM220.805 280.023C220.805 284.906 224.32 292.055 232.836 292.055C238.109 292.055 241.547 289.32 243.344 285.687C244.281 283.93 244.711 282.094 244.828 280.141C244.906 278.266 244.555 276.312 243.734 274.594C242.055 270.844 238.422 267.602 232.68 267.602C225.023 267.602 220.727 273.773 220.727 279.945L220.805 280.023ZM273.773 278.813L260.453 260.102H271.82L279.555 272.25L287.289 260.102H298.539L285.297 278.813L300.062 299.672H288.461L279.594 286.039L270.648 299.672H259.203L273.773 278.813Z" fill="white"/>
</g>
<defs>
<clipPath id="clip0_215_41">
<rect width="400" height="400" fill="white" transform="translate(56 56)"/>
</clipPath>
</defs>
</svg>
