<svg width="512" height="512" viewBox="0 0 512 512" fill="none" xmlns="http://www.w3.org/2000/svg">
<rect x="79" y="101" width="353" height="307" fill="white"/>
<path d="M418.5 81H93.5C72.7906 81 56 97.7906 56 118.5V393.5C56 414.209 72.7906 431 93.5 431H418.5C439.209 431 456 414.209 456 393.5V118.5C456 97.7906 439.209 81 418.5 81ZM403.394 108.344C411.591 108.344 418.238 114.991 418.238 123.188C418.238 131.384 411.591 138.031 403.394 138.031C395.197 138.031 388.55 131.384 388.55 123.188C388.55 114.991 395.197 108.344 403.394 108.344ZM348.316 108.344C356.513 108.344 363.159 114.991 363.159 123.188C363.159 131.384 356.513 138.031 348.316 138.031C340.119 138.031 333.472 131.384 333.472 123.188C333.472 114.991 340.119 108.344 348.316 108.344ZM293.238 108.344C301.434 108.344 308.081 114.991 308.081 123.188C308.081 131.384 301.434 138.031 293.238 138.031C285.041 138.031 278.394 131.384 278.394 123.188C278.394 114.991 285.041 108.344 293.238 108.344ZM424.75 393.5C424.75 396.942 421.948 399.75 418.5 399.75H93.5C90.0516 399.75 87.25 396.942 87.25 393.5V162.25H424.75V393.5Z" fill="#4B4B4B"/>
<path d="M132.154 311.2H144.678C145.441 311.2 145.948 310.705 146.186 309.98L156.947 275.605H157.209L167.702 309.98C167.958 310.706 168.47 311.2 169.221 311.2H181.868C182.637 311.2 183.144 310.705 183.382 309.98L203.005 253.217C203.249 252.491 202.859 251.997 201.985 251.997H186.428C185.53 251.997 185.03 252.375 184.786 253.217L175.166 288.447H174.923L164.168 253.217C163.905 252.375 163.405 251.997 162.519 251.997H151.893C151.002 251.997 150.366 252.375 150.129 253.217L139.618 288.447H139.362L129.248 253.217C128.991 252.375 128.503 251.997 127.477 251.997H111.927C111.152 251.997 110.791 252.491 111.023 253.217L130.646 309.98C130.896 310.705 131.403 311.2 132.154 311.2Z" fill="#4B4B4B"/>
<path d="M231.061 311.2H243.603C244.354 311.2 244.867 310.705 245.111 309.98L255.866 275.605H256.122L266.614 309.98C266.877 310.706 267.383 311.2 268.14 311.2H280.78C281.549 311.2 282.05 310.705 282.306 309.98L301.917 253.217C302.162 252.491 301.783 251.997 300.904 251.997H285.352C284.448 251.997 283.941 252.375 283.698 253.217L274.078 288.447H273.828L263.08 253.217C262.817 252.375 262.317 251.997 261.437 251.997H250.805C249.92 251.997 249.285 252.375 249.041 253.217L238.537 288.447H238.287L228.161 253.217C227.916 252.375 227.404 251.997 226.397 251.997H210.839C210.064 251.997 209.691 252.491 209.954 253.217L229.559 309.98C229.81 310.705 230.316 311.2 231.061 311.2Z" fill="#4B4B4B"/>
<path d="M330.121 311.2H342.658C343.402 311.2 343.909 310.705 344.159 309.98L354.914 275.605H355.177L365.668 309.98C365.924 310.706 366.425 311.2 367.182 311.2H379.834C380.598 311.2 381.104 310.705 381.355 309.98L400.977 253.217C401.209 252.491 400.831 251.997 399.965 251.997H384.388C383.503 251.997 382.996 252.375 382.752 253.217L373.14 288.447H372.89L362.135 253.217C361.873 252.375 361.372 251.997 360.493 251.997H349.854C348.969 251.997 348.34 252.375 348.096 253.217L337.579 288.447H337.341L327.221 253.217C326.959 252.375 326.47 251.997 325.451 251.997H309.887C309.13 251.997 308.751 252.491 308.995 253.217L328.619 309.98C328.858 310.705 329.364 311.2 330.121 311.2Z" fill="#4B4B4B"/>
</svg>
