<svg width="512" height="512" viewBox="0 0 512 512" fill="none" xmlns="http://www.w3.org/2000/svg">
<path d="M98.4609 429.719L63.5469 38H447.602L412.688 429.719L255.148 474" fill="#E34F26"/>
<path d="M256 439.938L382.883 405.023L412.688 69.5078H256" fill="#EF652A"/>
<path d="M256 215.125H192.133L187.875 165.734H256V118.047H255.148H135.078L135.93 130.82L147.852 263.664H256V215.125ZM256 340.305H255.148L201.5 325.828L198.094 287.508H172.547H150.406L156.367 363.297L255.148 390.547H256V340.305Z" fill="#EBEBEB"/>
<path d="M255.148 215.125V263.664H314.758L308.797 325.828L255.148 340.305V390.547L353.93 363.297L354.781 354.781L365.852 227.898L367.555 215.125H353.93H255.148ZM255.148 118.047V147.852V165.734H371.812L372.664 155.516L375.219 130.82L376.07 118.047H255.148Z" fill="white"/>
</svg>
