<svg width="512" height="512" viewBox="0 0 512 512" fill="none" xmlns="http://www.w3.org/2000/svg">
<path d="M53 453V53H453V453H53Z" fill="#FFD600"/>
<path d="M314.533 352.411C322.222 364.9 330.578 376.867 348.278 376.867C363.144 376.867 370.944 369.478 370.944 359.255C370.944 347.022 362.878 342.678 346.522 335.555L337.556 331.733C311.678 320.755 294.467 307 294.467 277.944C294.467 251.167 314.967 230.789 347 230.789C369.811 230.789 386.2 238.689 398.022 259.378L370.089 277.233C363.944 266.255 357.3 261.933 347 261.933C336.489 261.933 329.833 268.567 329.833 277.233C329.833 287.944 336.5 292.278 351.889 298.911L360.856 302.733C391.356 315.722 408.556 328.989 408.556 358.811C408.556 390.944 383.178 408.555 349.111 408.555C315.789 408.555 296.867 391.833 286.333 371.133L314.533 352.411ZM185.8 353.322C191.422 363.389 199.967 371.133 212.256 371.133C224.011 371.133 230.778 366.489 230.778 348.433V230.778H267.811V354.122C267.811 391.533 246.111 408.555 214.422 408.555C185.789 408.555 165.122 389.155 156.7 371.133L185.8 353.322Z" fill="#000001"/>
</svg>
