<svg width="512" height="512" viewBox="0 0 512 512" fill="none" xmlns="http://www.w3.org/2000/svg">
<g clip-path="url(#clip0_215_13)">
<path d="M87.3286 418.843C66.0571 418.843 50.9857 397.729 57.5571 377.143L112.3 205.686C116.486 192.557 128.514 183.671 142.071 183.671C163.343 183.671 178.414 204.786 171.843 225.371L117.1 396.829C112.914 409.957 100.886 418.843 87.3286 418.843Z" fill="#333333"/>
<path d="M335.257 93C321.357 93 308.757 101.329 303.114 114.243L222.357 298.829L193.214 232.214C193.214 232.214 193.186 232.343 193.157 232.414L160.714 334.014L188.871 398.386C194.529 411.3 207.114 419.629 221.014 419.629C221.457 419.629 221.9 419.6 222.343 419.586C222.786 419.6 223.214 419.629 223.657 419.629C237.557 419.629 250.157 411.3 255.8 398.386L367.4 143.371C377.757 119.686 360.729 93 335.257 93Z" fill="#1572EB"/>
<path d="M454.443 377.143L384.914 159.386L346.857 246.371L394.9 396.829C399.086 409.957 411.114 418.843 424.671 418.843C445.943 418.843 461.014 397.729 454.443 377.143Z" fill="#333333"/>
</g>
<defs>
<clipPath id="clip0_215_13">
<rect width="400" height="326.629" fill="white" transform="translate(56 93)"/>
</clipPath>
</defs>
</svg>
