<svg width="512" height="512" viewBox="0 0 512 512" fill="none" xmlns="http://www.w3.org/2000/svg">
<rect x="141" y="118" width="231" height="277" fill="white"/>
<g clip-path="url(#clip0_215_68)">
<path d="M256 56C145.543 56 56 145.543 56 256C56 366.457 145.543 456 256 456C366.457 456 456 366.457 456 256C456 145.543 366.457 56 256 56ZM256 123.241C278.237 123.241 296.264 141.268 296.264 163.505C296.264 185.743 278.238 203.77 256 203.77C233.763 203.77 215.736 185.743 215.736 163.505C215.736 141.268 233.763 123.241 256 123.241ZM298.571 388.759H213.43V354.702H241.295V271.882H224.266V237.825H275.351V240.921V271.882V354.702H298.571V388.759Z" fill="#4A6EFB"/>
</g>
<defs>
<clipPath id="clip0_215_68">
<rect width="400" height="400" fill="white" transform="translate(56 56)"/>
</clipPath>
</defs>
</svg>
